# xmcd
#
# Track frame offsets: 
#        150
#        20907
#        42697
#        66450
#        91760
#        113337
#        131437
#        153277
#        183765
#
# Disc length: 2733 seconds
#
# Revision: 3
# Processed by: cddbd v1.5.2PL0 Copyright (c) Steve Scherf et al.
# Submitted via: ExactAudioCopy v0.99pb5
#
DISCID=700aab09
DTITLE=The Ojays - Serious
DYEAR=1989
DGENRE=R&B
TTITLE0=Out Of My Mind
TTITLE1=Leave It Alone
TTITLE2=Have You Had Your Love Today ?
TTITLE3=Serious Hold On Me
TTITLE4=Friend Of A Friend
TTITLE5=Never Been Better
TTITLE6=Rainbow
TTITLE7=Fading
TTITLE8=Pot Can't Call The Kettle Black
EXTD=
EXTT0=
EXTT1=
EXTT2=
EXTT3=
EXTT4=
EXTT5=
EXTT6=
EXTT7=
EXTT8=
PLAYORDER=
